<svg id="Layer_5" enable-background="new 0 0 64 64" height="512" viewBox="0 0 64 64" width="512" xmlns="http://www.w3.org/2000/svg"><g><g><g><path d="m40.995 36h-17.99c-1.657 0-3.005-1.348-3.005-3.005v-5.99c0-1.657 1.348-3.005 3.005-3.005h17.99c1.657 0 3.005 1.348 3.005 3.005v5.99c0 1.657-1.348 3.005-3.005 3.005z" fill="#f0bc5e"/></g></g><g><path d="m46 4c0-1.654-1.346-3-3-3s-3 1.346-3 3v7.165c-2.357-1.368-5.084-2.165-8-2.165-8.822 0-16 7.178-16 16v4c0 6.933 1.194 22.868 1.707 29.397.203 2.582 2.392 4.603 4.984 4.603h18.617c2.592 0 4.781-2.021 4.984-4.603.514-6.529 1.708-22.464 1.708-29.397v-4c0-2.802-.729-5.436-2-7.729zm-4 0c0-.551.449-1 1-1s1 .449 1 1v10.453c-.612-.696-1.277-1.342-2-1.923zm-5 57h-10v-1c0-.552.449-1 1-1h8c.551 0 1 .448 1 1zm9-32c0 6.861-1.189 22.734-1.701 29.241-.122 1.547-1.435 2.759-2.99 2.759h-2.309v-1c0-1.654-1.346-3-3-3h-8c-1.654 0-3 1.346-3 3v1h-2.309c-1.555 0-2.869-1.212-2.99-2.759-.512-6.507-1.701-22.38-1.701-29.241v-4c0-7.72 6.28-14 14-14s14 6.28 14 14z"/><path d="m31 15h2v4h-2z"/><path d="m35 15h2v4h-2z"/><path d="m27 15h2v4h-2z"/><path d="m24 38c-1.654 0-3 1.346-3 3v11c0 1.654 1.346 3 3 3h16c1.654 0 3-1.346 3-3v-11c0-1.654-1.346-3-3-3zm12 10h-3v-3h3zm2-3h3v3h-3zm-10 0h3v3h-3zm-2 3h-3v-3h3zm2-5v-3h3v3zm3 7v3h-3v-3zm2 0h3v3h-3zm0-7v-3h3v3zm-9-3h2v3h-3v-2c0-.552.449-1 1-1zm-1 12v-2h3v3h-2c-.551 0-1-.448-1-1zm17 1h-2v-3h3v2c0 .552-.449 1-1 1zm1-12v2h-3v-3h2c.551 0 1 .448 1 1z"/><path d="m53.536 28.464-1.414 1.414c.566.567.878 1.321.878 2.122s-.312 1.555-.878 2.121l1.414 1.414c.944-.944 1.464-2.199 1.464-3.535 0-1.335-.52-2.591-1.464-3.536z"/><path d="m56.364 25.636-1.414 1.414c1.322 1.323 2.05 3.08 2.05 4.95 0 1.869-.728 3.628-2.05 4.95l1.414 1.414c1.7-1.7 2.636-3.961 2.636-6.364 0-2.404-.936-4.664-2.636-6.364z"/><path d="m59.192 22.808-1.414 1.414c4.289 4.289 4.289 11.268 0 15.557l1.414 1.414c5.069-5.069 5.069-13.317 0-18.385z"/><path d="m10.464 28.464c-.944.945-1.464 2.201-1.464 3.536 0 1.336.52 2.591 1.464 3.535l1.414-1.414c-.566-.566-.878-1.32-.878-2.121s.312-1.555.878-2.122z"/><path d="m9.05 27.05-1.414-1.414c-1.7 1.7-2.636 3.96-2.636 6.364 0 2.403.936 4.664 2.636 6.364l1.414-1.414c-1.322-1.322-2.05-3.081-2.05-4.95 0-1.87.728-3.627 2.05-4.95z"/><path d="m6.222 24.222-1.414-1.414c-5.068 5.069-5.068 13.316 0 18.385l1.414-1.414c-4.289-4.29-4.289-11.268 0-15.557z"/></g></g></svg>