<svg id="Layer_1" enable-background="new 0 0 256 256" height="512" viewBox="0 0 256 256" width="512" xmlns="http://www.w3.org/2000/svg"><path d="m77.616 133.136 20.384 45.864h8.254l-26.637-52.973c-2.165 1.505-3.195 4.423-2.001 7.109z" fill="#89aadb"/><path d="m122 179-34.282-51.423c-1.073-1.61-2.88-2.577-4.814-2.577-.7 0-1.357.13-1.965.348l30.934 53.652z" fill="#4b67b0"/><path d="m80.939 125.348c-.476.171-.919.399-1.322.679l26.637 52.973h5.619z" fill="#6287c5"/><path d="m180.312 133.136-20.384 45.864h-8.254l26.637-52.973c2.165 1.505 3.194 4.423 2.001 7.109z" fill="#89aadb"/><path d="m135.928 179 34.282-51.423c1.073-1.61 2.88-2.577 4.814-2.577.7 0 1.357.13 1.965.348l-30.935 53.652z" fill="#4b67b0"/><path d="m176.989 125.348c.476.171.919.399 1.322.679l-26.638 52.973h-5.619z" fill="#6287c5"/><path d="m189.046 179h-43.37c3.493 0 6.325 2.832 6.325 6.324v17.351c0 3.493-2.832 6.325-6.325 6.325h43.37c6.05 0 10.954-4.905 10.954-10.954v-8.091c0-6.05-4.904-10.955-10.954-10.955z" fill="#e8383b"/><path d="m104 202.675v-17.351c0-3.493 2.832-6.324 6.325-6.324h-43.37c-6.051 0-10.955 4.905-10.955 10.954v8.091c0 6.05 4.904 10.955 10.954 10.955h43.37c-3.492 0-6.324-2.832-6.324-6.325z" fill="#ef7f72"/><path d="m152 202.675v-17.351c0-3.493-2.832-6.324-6.325-6.324h-35.351c-3.493 0-6.325 2.832-6.325 6.324v17.351c0 3.493 2.832 6.325 6.325 6.325h35.351c3.493 0 6.325-2.832 6.325-6.325z" fill="#e95947"/><path d="m189.046 212h-122.091c-7.695 0-13.955-6.26-13.955-13.955v-8.091c0-7.694 6.26-13.954 13.955-13.954h122.091c7.694 0 13.954 6.26 13.954 13.955v8.091c0 7.694-6.26 13.954-13.954 13.954zm-122.091-30c-4.386 0-7.955 3.568-7.955 7.955v8.091c0 4.386 3.568 7.955 7.955 7.955h122.091c4.386 0 7.954-3.568 7.954-7.955v-8.091c0-4.386-3.568-7.955-7.954-7.955z" fill="#1c2d6b"/><path d="m122 182h-24c-1.186 0-2.26-.698-2.741-1.782l-20.384-45.864c-1.213-2.729-.966-5.853.662-8.356 1.627-2.503 4.381-3.998 7.367-3.998 2.944 0 5.677 1.462 7.311 3.913l34.282 51.423c.614.92.671 2.104.149 3.08s-1.54 1.584-2.646 1.584zm-22.05-6h16.445l-31.173-46.759c-.518-.777-1.385-1.241-2.318-1.241-.961 0-1.812.462-2.336 1.268-.523.806-.6 1.772-.21 2.65z" fill="#1c2d6b"/><path d="m160.001 182h-24c-1.106 0-2.123-.609-2.646-1.584-.521-.976-.465-2.159.149-3.08l34.282-51.423c1.633-2.45 4.366-3.913 7.311-3.913 2.986 0 5.74 1.495 7.367 3.998s1.875 5.627.662 8.356l-20.385 45.864c-.48 1.084-1.554 1.782-2.74 1.782zm-18.395-6h16.445l19.593-44.082c.39-.878.313-1.844-.21-2.65-.524-.806-1.376-1.268-2.337-1.268-.934 0-1.801.464-2.318 1.241z" fill="#1c2d6b"/><path d="m128 47c-23.2 0-44.2 9.4-59.4 24.6l12.73 12.73c4.929-4.925 10.641-9.059 16.919-12.236l-.249-.494c7.677-15.2 18.283-24.6 30-24.6z" fill="#ede49d"/><path d="m187.4 71.6c-15.2-15.2-36.2-24.6-59.4-24.6 11.717 0 22.323 9.4 30 24.6l-.249.494c6.278 3.177 11.991 7.312 16.919 12.236z" fill="#d3ba2a"/><path d="m128 47c-11.717 0-22.323 9.4-30 24.6l.249.494c8.944-4.527 19.046-7.094 29.751-7.094s20.807 2.567 29.751 7.094l.249-.494c-7.677-15.2-18.283-24.6-30-24.6z" fill="#eee045"/><path d="m128 83c-13.26 0-25.26 5.37-33.94 14.06l12.73 12.73c3.21-3.21 7.147-5.688 11.537-7.185l-1.889-5.545c2.957-8.69 7.045-14.06 11.562-14.06z" fill="#ede49d"/><path d="m161.94 97.06c-8.68-8.69-20.68-14.06-33.94-14.06 4.517 0 8.605 5.37 11.562 14.06l-1.889 5.545c4.39 1.497 8.327 3.975 11.537 7.185z" fill="#d3ba2a"/><path d="m128 83c-4.517 0-8.605 5.37-11.562 14.06l1.889 5.545c3.036-1.035 6.288-1.605 9.673-1.605s6.637.57 9.673 1.605l1.889-5.545c-2.957-8.69-7.045-14.06-11.562-14.06z" fill="#eee045"/><path d="m124.28 131c0-6.627 1.666-12 3.72-12-6.627 0-12 5.373-12 12s5.373 12 12 12c-2.055 0-3.72-5.373-3.72-12z" fill="#ede49d"/><path d="m128 119c2.055 0 3.72 5.373 3.72 12s-1.666 12-3.72 12c6.627 0 12-5.373 12-12s-5.373-12-12-12z" fill="#d3ba2a"/><ellipse cx="128" cy="131" fill="#eee045" rx="3.72" ry="12"/><g fill="#1c2d6b"><path d="m174.67 87.33c-.768 0-1.535-.292-2.12-.878-11.91-11.899-27.732-18.452-44.55-18.452-16.819 0-32.641 6.553-44.549 18.452-1.173 1.171-3.072 1.17-4.242-.001l-12.73-12.73c-1.172-1.171-1.172-3.071 0-4.242 16.43-16.431 38.278-25.479 61.521-25.479 23.242 0 45.092 9.048 61.521 25.479.562.562.879 1.326.879 2.121 0 .796-.316 1.559-.879 2.122l-12.73 12.73c-.586.585-1.353.878-2.121.878zm-46.67-25.33c17.419 0 33.859 6.417 46.624 18.133l8.495-8.495c-15.025-13.976-34.483-21.638-55.119-21.638s-40.093 7.662-55.119 21.638l8.495 8.495c12.764-11.716 29.205-18.133 46.624-18.133z"/><path d="m106.79 112.79c-.768 0-1.536-.293-2.121-.879l-12.73-12.73c-1.171-1.171-1.172-3.069-.001-4.241 9.623-9.634 22.43-14.94 36.062-14.94s26.439 5.306 36.062 14.94c1.171 1.172 1.17 3.07-.001 4.242l-12.73 12.73c-.562.562-1.325.878-2.121.878-.796 0-1.559-.316-2.121-.879-5.102-5.101-11.881-7.911-19.089-7.911s-13.987 2.81-19.089 7.911c-.585.586-1.353.879-2.121.879zm-8.419-15.662 8.514 8.514c5.92-4.949 13.311-7.642 21.115-7.642s15.196 2.694 21.115 7.642l8.515-8.514c-8.198-7.198-18.608-11.128-29.63-11.128s-21.432 3.93-29.629 11.128z"/><path d="m128 146c-8.271 0-15-6.729-15-15s6.729-15 15-15 15 6.729 15 15-6.729 15-15 15zm0-24c-4.962 0-9 4.038-9 9s4.038 9 9 9c4.963 0 9-4.038 9-9s-4.037-9-9-9z"/><circle cx="72.047" cy="194" r="4.047"/><circle cx="84.047" cy="194" r="4.047"/><circle cx="96.047" cy="194" r="4.047"/><path d="m182 197h-12c-1.657 0-3-1.343-3-3s1.343-3 3-3h12c1.657 0 3 1.343 3 3s-1.343 3-3 3z"/></g></svg>