<svg id="Layer_5" enable-background="new 0 0 64 64" height="512" viewBox="0 0 64 64" width="512" xmlns="http://www.w3.org/2000/svg"><g><g><g><path d="m43 55h-22c-1.103 0-2-.897-2-2v-4c0-1.103.897-2 2-2h22c1.103 0 2 .897 2 2v4c0 1.103-.897 2-2 2z" fill="#f0bc5e"/></g></g><g><path d="m60 49h-5.732c3.062-3.808 4.732-8.345 4.732-13 0-9.404-6.803-17.888-17-21.354l.987-10.363c.075-.797-.164-1.576-.674-2.195-.504-.609-1.231-.999-1.951-1.064-1.676-.238-3.191 1.039-3.348 2.692l-.912 9.575c-2.707-.35-5.495-.35-8.203 0l-.912-9.575c-.145-1.524-1.444-2.719-2.958-2.719-.128 0-.259.008-.345.021-.764.071-1.492.461-1.997 1.072-.509.617-.749 1.396-.673 2.194l.986 10.362c-10.197 3.466-17 11.95-17 21.354 0 4.655 1.67 9.192 4.732 13h-5.732c-1.654 0-3 1.346-3 3v4c0 1.654 1.346 3 3 3h1.219l1 4h9.562l1-4h30.438l1 4h9.562l1-4h1.219c1.654 0 3-1.346 3-3v-4c0-1.654-1.346-3-3-3zm-3-13c0 4.716-1.921 9.31-5.393 13h-1.887l-.86-2.581c-.681-2.045-2.588-3.419-4.743-3.419h-2.218c-.28-1.374-1.134-2.532-2.29-3.245l2.196-23.061c9.134 3.281 15.195 10.901 15.195 19.306zm-30.665 3.067-2.614-27.445 1.982-.283 2.635 27.661h-1.338c-.228 0-.445.038-.665.067zm.665 1.933h10c1.302 0 2.402.839 2.816 2h-15.632c.414-1.161 1.514-2 2.816-2zm10-2h-1.338l2.639-27.704 1.986.248-2.621 27.524c-.221-.03-.438-.068-.666-.068zm2.972-36.003c.039 0 .077.002.161.013.239.021.472.15.638.352.173.21.25.464.225.733l-.52 5.457-1.986-.248.514-5.399c.048-.501.482-.908.968-.908zm-4.06 12.283-2.259 23.72h-3.305l-2.259-23.72c2.579-.34 5.243-.34 7.823 0zm-12.683-11.917c.167-.203.4-.332.684-.359.526-.068 1.032.36 1.083.901l.518 5.44-1.982.283-.527-5.532c-.026-.271.052-.525.224-.733zm-16.229 32.637c0-8.405 6.061-16.025 15.195-19.306l2.196 23.061c-1.157.713-2.01 1.871-2.29 3.245h-2.218c-2.155 0-4.062 1.374-4.743 3.419l-.861 2.581h-1.887c-3.471-3.69-5.392-8.284-5.392-13zm7.219 25h-6.438l-.5-2h7.438zm42 0h-6.438l-.5-2h7.438zm4.781-5c0 .552-.449 1-1 1h-56c-.551 0-1-.448-1-1v-4c0-.552.449-1 1-1h11.721l1.316-3.948c.409-1.228 1.553-2.052 2.846-2.052h24.234c1.293 0 2.437.824 2.846 2.052l1.316 3.948h11.721c.551 0 1 .448 1 1z"/><path d="m9 53h2v2h-2z"/><path d="m13 53h2v2h-2z"/><path d="m5 53h2v2h-2z"/><path d="m57 53h2v2h-2z"/><path d="m53 53h2v2h-2z"/><path d="m49 53h2v2h-2z"/></g></g></svg>